<?xml version="1.0" encoding="UTF-8" standalone="no"?>
<!-- Created with Inkscape (http://www.inkscape.org/) -->

<svg
   width="240mm"
   height="120mm"
   viewBox="0 0 240 120"
   version="1.1"
   id="svg8"
   inkscape:version="1.1 (1:1.1+202106031931+af4d65493e)"
   sodipodi:docname="mpk-less-than-breakeven-level.svg"
   xmlns:inkscape="http://www.inkscape.org/namespaces/inkscape"
   xmlns:sodipodi="http://sodipodi.sourceforge.net/DTD/sodipodi-0.dtd"
   xmlns="http://www.w3.org/2000/svg"
   xmlns:svg="http://www.w3.org/2000/svg"
   xmlns:rdf="http://www.w3.org/1999/02/22-rdf-syntax-ns#"
   xmlns:cc="http://creativecommons.org/ns#"
   xmlns:dc="http://purl.org/dc/elements/1.1/">
  <defs
     id="defs2">
    <inkscape:path-effect
       effect="spiro"
       id="path-effect68429"
       is_visible="true"
       lpeversion="1" />
    <inkscape:path-effect
       effect="spiro"
       id="path-effect68391"
       is_visible="true"
       lpeversion="1" />
    <inkscape:path-effect
       effect="spiro"
       id="path-effect58398"
       is_visible="true"
       lpeversion="1" />
    <inkscape:path-effect
       effect="spiro"
       id="path-effect43422"
       is_visible="true"
       lpeversion="1" />
    <inkscape:path-effect
       effect="spiro"
       id="path-effect39787"
       is_visible="true"
       lpeversion="1" />
    <inkscape:path-effect
       effect="spiro"
       id="path-effect29979"
       is_visible="true"
       lpeversion="1" />
    <inkscape:path-effect
       effect="spiro"
       id="path-effect868"
       is_visible="true"
       lpeversion="1" />
    <inkscape:path-effect
       effect="spiro"
       id="path-effect864"
       is_visible="true"
       lpeversion="1" />
    <inkscape:path-effect
       effect="spiro"
       id="path-effect860"
       is_visible="true"
       lpeversion="1" />
  </defs>
  <sodipodi:namedview
     id="base"
     pagecolor="#ffffff"
     bordercolor="#666666"
     borderopacity="1.0"
     inkscape:pageopacity="0.0"
     inkscape:pageshadow="2"
     inkscape:zoom="0.99437388"
     inkscape:cx="284.09837"
     inkscape:cy="182.02409"
     inkscape:document-units="mm"
     inkscape:current-layer="layer1"
     showgrid="false"
     showborder="true"
     width="200mm"
     showguides="true"
     inkscape:guide-bbox="true"
     inkscape:window-width="1904"
     inkscape:window-height="807"
     inkscape:window-x="7"
     inkscape:window-y="37"
     inkscape:window-maximized="1"
     inkscape:pagecheckerboard="0">
    <inkscape:grid
       type="xygrid"
       id="grid815"
       units="mm"
       spacingx="10"
       spacingy="10"
       empspacing="4"
       dotted="false" />
  </sodipodi:namedview>
  <metadata
     id="metadata5">
    <rdf:RDF>
      <cc:Work
         rdf:about="">
        <dc:format>image/svg+xml</dc:format>
        <dc:type
           rdf:resource="http://purl.org/dc/dcmitype/StillImage" />
        <dc:title />
      </cc:Work>
    </rdf:RDF>
  </metadata>
  <g
     inkscape:label="Layer 1"
     inkscape:groupmode="layer"
     id="layer1"
     transform="translate(0,-177)">
    <path
       style="fill:none;stroke:#000000;stroke-width:0.264583px;stroke-linecap:butt;stroke-linejoin:miter;stroke-opacity:1"
       d="m 26.003896,189.11951 v 88.50363 H 166.59224"
       id="path856" />
    <path
       style="fill:none;stroke:#000000;stroke-width:0.264583px;stroke-linecap:butt;stroke-linejoin:miter;stroke-opacity:1"
       d="m 26.003896,277.62314 c 2.074054,-6.61333 5.569751,-12.77694 10.181081,-17.95125 6.955395,-7.80456 16.234522,-13.19239 25.824944,-17.35321 12.763063,-5.53728 26.29235,-9.11189 39.905259,-11.98346 18.35557,-3.87201 36.97293,-6.50246 55.68272,-7.86741"
       id="path858"
       inkscape:path-effect="#path-effect860"
       inkscape:original-d="m 26.003896,277.62314 c 3.393958,-5.98348 6.787652,-11.96724 10.181081,-17.95125 3.393427,-5.98401 17.216892,-11.56854 25.824944,-17.35321 8.60805,-5.78467 26.603772,-7.98871 39.905259,-11.98346 13.30149,-3.99475 37.12208,-5.24468 55.68272,-7.86741" />
    <path
       style="fill:none;stroke:#000000;stroke-width:0.290332;stroke-linecap:butt;stroke-linejoin:miter;stroke-opacity:1;stroke-miterlimit:4;stroke-dasharray:0.290332,0.290332;stroke-dashoffset:0"
       d="m 26.009608,277.618 c 1.78933,-7.88368 5.239343,-15.38636 10.059559,-21.87633 6.638952,-8.93873 15.737961,-15.82277 25.516698,-21.14751 12.340606,-6.71973 25.823337,-11.09186 39.428945,-14.60366 18.04426,-4.65748 36.46205,-7.86703 55.0181,-9.58763"
       id="path858-3"
       inkscape:path-effect="#path-effect58398"
       inkscape:original-d="m 26.009608,277.618 c 3.353448,-7.29178 6.706635,-14.5839 10.059559,-21.87633 3.352924,-7.29242 17.011391,-14.09802 25.516698,-21.14751 8.505304,-7.0495 26.286229,-9.73546 39.428945,-14.60366 13.14273,-4.86822 36.67901,-6.39144 55.0181,-9.58763" />
    <path
       style="fill:none;stroke:#000000;stroke-width:0.264583px;stroke-linecap:butt;stroke-linejoin:miter;stroke-opacity:1"
       d="m 26.003896,277.62314 c 1.172844,-9.15582 3.252359,-18.19525 6.198255,-26.94318 1.772765,-5.26428 3.859742,-10.42564 6.320203,-15.40574 3.857457,-7.8077 8.743302,-15.28605 15.506001,-20.77295 9.243262,-7.49949 21.178448,-10.68317 32.810333,-13.20895 22.084262,-4.79544 44.530012,-7.92519 67.083712,-9.35392"
       id="path862"
       inkscape:path-effect="#path-effect864"
       inkscape:original-d="m 26.003896,277.62314 c 2.06635,-8.9808 4.132434,-17.96186 6.198255,-26.94318 2.065819,-8.98133 4.213733,-10.27023 6.320203,-15.40574 2.106469,-5.13551 10.337599,-13.84837 15.506001,-20.77295 5.168403,-6.92459 21.873818,-8.80571 32.810333,-13.20895 10.936513,-4.40325 44.722742,-6.23569 67.083712,-9.35392" />
    <path
       style="fill:none;stroke:#000000;stroke-width:0.264583px;stroke-linecap:butt;stroke-linejoin:miter;stroke-opacity:1"
       d="M 26.003896,277.62314 161.31248,199.50269"
       id="path866"
       inkscape:path-effect="#path-effect868"
       inkscape:original-d="M 26.003896,277.62314 C 71.107021,251.58325 116.20988,225.5431 161.31248,199.50269" />
    <text
       xml:space="preserve"
       style="font-size:4.23333px;line-height:1.25;font-family:sans-serif;letter-spacing:0px;stroke-width:0.264583"
       x="155.95695"
       y="190.01482"
       id="text25474"><tspan
         sodipodi:role="line"
         id="tspan25472"
         style="stroke-width:0.264583"
         x="155.95695"
         y="190.01482">$ f(k) $</tspan><tspan
         sodipodi:role="line"
         style="stroke-width:0.264583"
         x="155.95695"
         y="195.30647"
         id="tspan25476" /></text>
    <text
       xml:space="preserve"
       style="font-size:4.23333px;line-height:1.25;font-family:sans-serif;letter-spacing:0px;stroke-width:0.264583"
       x="162.95395"
       y="199.0386"
       id="text27694"><tspan
         sodipodi:role="line"
         id="tspan27692"
         style="stroke-width:0.264583"
         x="162.95395"
         y="199.0386">$ (n + g + \delta)k $</tspan><tspan
         sodipodi:role="line"
         style="stroke-width:0.264583"
         x="162.95395"
         y="204.33026"
         id="tspan27696" /></text>
    <path
       style="fill:none;stroke:#000000;stroke-width:0.34130599;stroke-linecap:butt;stroke-linejoin:miter;stroke-opacity:1;stroke-miterlimit:4;stroke-dasharray:0.34130599,2.04783596;stroke-dashoffset:0"
       d="m 111.14459,196.6103 v 80.74094"
       id="path29977"
       inkscape:path-effect="#path-effect29979"
       inkscape:original-d="m 111.14459,196.6103 c 2.6e-4,26.91409 2.6e-4,53.82773 0,80.74094" />
    <path
       style="fill:none;stroke:#000000;stroke-width:0.349764;stroke-linecap:butt;stroke-linejoin:miter;stroke-miterlimit:4;stroke-dasharray:0.349764, 2.09859;stroke-dashoffset:0;stroke-opacity:1"
       d="m 138.45923,195.24904 v 82.7418"
       id="path29977-6"
       inkscape:path-effect="#path-effect68391"
       inkscape:original-d="m 138.45923,195.24904 c 2.7e-4,27.58105 2.7e-4,55.16165 0,82.7418" />
    <text
       xml:space="preserve"
       style="font-size:4.23333px;line-height:1.25;font-family:sans-serif;letter-spacing:0px;stroke-width:0.264583"
       x="104.66"
       y="283.03976"
       id="text32131"><tspan
         sodipodi:role="line"
         id="tspan32129"
         style="stroke-width:0.264583"
         x="104.66"
         y="283.03976">$ k_0^{*} $</tspan><tspan
         sodipodi:role="line"
         style="stroke-width:0.264583"
         x="104.66"
         y="288.33142"
         id="tspan32133" /></text>
    <text
       xml:space="preserve"
       style="font-size:4.23333px;line-height:1.25;font-family:sans-serif;letter-spacing:0px;stroke-width:0.264583"
       x="170.15257"
       y="278.4259"
       id="text34185"><tspan
         sodipodi:role="line"
         id="tspan34183"
         style="stroke-width:0.264583"
         x="170.15257"
         y="278.4259">k</tspan></text>
    <text
       xml:space="preserve"
       style="font-size:4.23333px;line-height:1.25;font-family:sans-serif;letter-spacing:0px;stroke-width:0.264583"
       x="19.940386"
       y="188.26231"
       id="text39571"><tspan
         sodipodi:role="line"
         id="tspan39569"
         style="stroke-width:0.264583"
         x="19.940386"
         y="188.26231">y</tspan></text>
    <path
       style="fill:none;stroke:#000000;stroke-width:0.264583px;stroke-linecap:butt;stroke-linejoin:miter;stroke-opacity:1"
       d="m 111.14459,196.6103 c -0.83481,-0.19072 -1.75316,0.0275 -2.41294,0.57336 -0.0775,0.0641 -0.15194,0.13284 -0.21286,0.21286 -0.0912,0.1198 -0.14982,0.26248 -0.18161,0.40966 -0.0318,0.14718 -0.0375,0.29906 -0.0296,0.44942 0.0158,0.30074 0.0853,0.59653 0.10474,0.89705 0.0369,0.56925 -0.10566,1.14702 0,1.70759 0.044,0.23343 0.13034,0.45821 0.16066,0.69381 0.039,0.30334 -0.0164,0.61116 0,0.91656 0.0172,0.32117 0.11367,0.63634 0.10642,0.95789 -0.003,0.14223 -0.0266,0.28597 0,0.42573 0.0213,0.11175 0.0736,0.21492 0.10741,0.32353 0.0536,0.17213 0.0601,0.35562 0.0495,0.5356 -0.0106,0.17997 -0.0376,0.35864 -0.0495,0.53853 -0.0367,0.55484 0.0705,1.12278 -0.0631,1.66254 -0.0699,0.28243 -0.20362,0.54583 -0.27501,0.82789 -0.0276,0.10914 -0.0458,0.22068 -0.0542,0.33295 -0.0852,0.14687 -0.14652,0.30749 -0.18098,0.47372 -0.0444,0.21418 -0.0445,0.43722 -0.10785,0.64658 -0.036,0.11889 -0.0921,0.23166 -0.16533,0.33201 -0.04,0.15726 -0.0794,0.31469 -0.11807,0.47229 -0.10941,0.44582 -0.21495,0.89745 -0.41846,1.30893 -0.2035,0.41148 -0.51803,0.7858 -0.93964,0.96738 -0.384,0.16538 -0.81978,0.1577 -1.23472,0.10643 -0.0617,-0.008 -0.12373,-0.0162 -0.18576,-0.0123 -0.062,0.004 -0.12496,0.021 -0.17352,0.0598 -0.0511,0.0408 -0.0827,0.10381 -0.0891,0.16886 -0.006,0.0651 0.0117,0.13156 0.0466,0.18684 0.0349,0.0553 0.086,0.0995 0.14373,0.13013 0.0578,0.0306 0.12209,0.0478 0.1871,0.0546 0.13002,0.0136 0.26065,-0.0136 0.38754,-0.0451 0.12689,-0.0315 0.25405,-0.0676 0.3847,-0.0722 0.19633,-0.007 0.39259,0.06 0.55085,0.17643 0.15825,0.1164 0.27899,0.28052 0.35383,0.46216 0.0214,0.0519 0.0392,0.1053 0.0532,0.15966 0.0298,0.0736 0.0654,0.14484 0.10642,0.21286 0.11242,0.18659 0.26408,0.34738 0.37416,0.53536 0.17764,0.30334 0.23761,0.66072 0.26608,1.0111 0.0493,0.60618 0.0141,1.21929 0.10643,1.82041 0.0545,0.35493 0.15296,0.70154 0.22242,1.05385 0.19743,1.0014 0.15831,2.03476 0.0532,3.05001 -0.0186,0.17923 -0.039,0.36214 0,0.53806 0.0284,0.12835 0.0877,0.24886 0.10945,0.37852 0.0192,0.11482 0.008,0.23229 -0.002,0.34825 -0.0103,0.11597 -0.0199,0.23374 0.002,0.34807 0.0106,0.0552 0.0286,0.10907 0.0532,0.15964 0.0251,0.087 0.043,0.17611 0.0532,0.26609 0.0322,0.28301 -0.0102,0.57377 0.0532,0.85145 0.0375,0.16415 0.11085,0.31779 0.15966,0.47894 0.092,0.3038 0.0949,0.62611 0.12776,0.94183 0.0329,0.31571 0.10286,0.64209 0.30313,0.88836 0.10169,0.12505 0.23453,0.22612 0.31343,0.36667 0.0389,0.0692 0.0634,0.14614 0.10644,0.21286 0.0546,0.0847 0.13569,0.14808 0.21286,0.21287 0.30456,0.25571 0.5702,0.5577 0.78497,0.89239"
       id="path39785"
       inkscape:path-effect="#path-effect39787"
       inkscape:original-d="m 111.14459,196.6103 c -0.91445,0.009 -1.84148,-0.14098 -2.41294,0.57336 -0.0627,0.0784 -0.17333,0.12063 -0.21286,0.21286 -0.16487,0.38467 -0.10643,1.32089 -0.10643,1.75613 0,0.48355 -0.0911,1.25533 0,1.70759 0.0504,0.25032 0.13439,0.43107 0.16066,0.69381 0.0303,0.30257 -0.0274,0.61367 0,0.91656 0.029,0.32046 0.0772,0.63657 0.10642,0.95789 0.0129,0.14132 -0.0279,0.28658 0,0.42573 0.0223,0.11142 0.0851,0.21211 0.10741,0.32353 0.064,0.31957 0,0.75039 0,1.07413 0,0.54892 0.0467,1.12074 -0.0631,1.66254 -0.0577,0.28501 -0.20124,0.54661 -0.27501,0.82789 -0.0285,0.10877 -0.0362,0.22197 -0.0542,0.33295 -0.0603,0.15791 -0.13307,0.31162 -0.18098,0.47372 -0.0619,0.20955 -0.0387,0.43931 -0.10785,0.64658 -0.0391,0.11728 -0.11022,0.22134 -0.16533,0.33201 -0.0394,0.15743 -0.0688,0.31768 -0.11807,0.47229 -0.16768,0.52621 -0.83589,2.06741 -1.3581,2.27631 -0.19491,0.078 -0.99302,0.10643 -1.23472,0.10643 -0.19482,0 -0.39359,-0.013 -0.35928,0.0475 0.0969,0.17071 0.88553,0.37946 1.06055,0.42321 0.0662,0.0166 0.85812,0.561 0.90468,0.63859 0.0289,0.0481 0.0355,0.10644 0.0532,0.15966 0.0355,0.0709 0.0624,0.14686 0.10642,0.21286 0.11465,0.17199 0.28349,0.35401 0.37416,0.53536 0.0552,0.11037 0.2488,0.85559 0.26608,1.0111 0.0668,0.60124 0.0191,1.22316 0.10643,1.82041 0.0518,0.35468 0.19252,0.69015 0.22242,1.05385 0.083,1.0099 -0.0237,2.0411 0.0532,3.05001 0.0136,0.17884 -0.0395,0.3631 0,0.53806 0.0289,0.12812 0.0835,0.24977 0.10945,0.37852 0.045,0.22312 -0.0374,0.47162 0,0.69632 0.009,0.0553 0.0355,0.10643 0.0532,0.15964 0.0177,0.0887 0.042,0.17633 0.0532,0.26609 0.0355,0.28422 0.0177,0.56737 0.0532,0.85145 0.0191,0.15258 0.14397,0.31904 0.15966,0.47894 0.0589,0.60062 0.0898,1.31472 0.43089,1.83019 0.0875,0.13229 0.21432,0.24278 0.31343,0.36667 0.0496,0.0619 0.0589,0.14939 0.10644,0.21286 0.0469,0.0626 0.17541,0.13796 0.21286,0.21287 0.19433,0.38867 0.37725,0.68853 0.78497,0.89239" />
    <text
       xml:space="preserve"
       style="font-size:4.23333px;line-height:1.25;font-family:sans-serif;letter-spacing:0px;stroke-width:0.264583"
       x="95.962158"
       y="214.11281"
       id="text42533"><tspan
         sodipodi:role="line"
         id="tspan42531"
         style="stroke-width:0.264583"
         x="95.962158"
         y="214.11281">$ c^{0} $</tspan><tspan
         sodipodi:role="line"
         style="stroke-width:0.264583"
         x="95.962158"
         y="219.40446"
         id="tspan42535" /></text>
    <path
       style="fill:none;stroke:#000000;stroke-width:0.264583px;stroke-linecap:butt;stroke-linejoin:miter;stroke-opacity:1"
       d="m 89.493937,199.57068 42.985693,-6.40005"
       id="path43420"
       inkscape:path-effect="#path-effect43422"
       inkscape:original-d="m 89.493937,199.57068 c 14.328833,-2.13309 28.657393,-4.26644 42.985693,-6.40005" />
    <text
       xml:space="preserve"
       style="font-size:4.23333px;line-height:1.25;font-family:sans-serif;letter-spacing:0px;stroke-width:0.264583"
       x="84.803261"
       y="191.74409"
       id="text46432"><tspan
         sodipodi:role="line"
         id="tspan46430"
         style="stroke-width:0.264583"
         x="84.803261"
         y="191.74409">slope of $ f(k) $ = $ f'(k) $</tspan><tspan
         sodipodi:role="line"
         style="stroke-width:0.264583"
         x="84.803261"
         y="197.03575"
         id="tspan46434" /></text>
    <text
       xml:space="preserve"
       style="font-size:4.23333px;line-height:1.25;font-family:sans-serif;letter-spacing:0px;stroke-width:0.264583"
       x="163.25294"
       y="204.66586"
       id="text57406"><tspan
         sodipodi:role="line"
         id="tspan57404"
         style="stroke-width:0.264583"
         x="163.25294"
         y="204.66586">slope of $ (n + g + \delta)k  = n + g + \delta$</tspan><tspan
         sodipodi:role="line"
         style="stroke-width:0.264583"
         x="163.25294"
         y="209.95752"
         id="tspan57408" /></text>
    <text
       xml:space="preserve"
       style="font-size:4.23333px;line-height:1.25;font-family:sans-serif;letter-spacing:0px;stroke-width:0.264583"
       x="158.97665"
       y="212.49065"
       id="text60009"><tspan
         sodipodi:role="line"
         id="tspan60007"
         style="stroke-width:0.264583"
         x="158.97665"
         y="212.49065">$ s_{H}^{\text{ new }} f(k) $</tspan><tspan
         sodipodi:role="line"
         style="stroke-width:0.264583"
         x="158.97665"
         y="217.7823"
         id="tspan60011" /></text>
    <text
       xml:space="preserve"
       style="font-size:4.23333px;line-height:1.25;font-family:sans-serif;letter-spacing:0px;stroke-width:0.264583"
       x="157.08939"
       y="227.73941"
       id="text62951"><tspan
         sodipodi:role="line"
         id="tspan62949"
         style="stroke-width:0.264583"
         x="157.08939"
         y="227.73941">$ s_{H}^{\text{ old }}f(k) $</tspan><tspan
         sodipodi:role="line"
         style="stroke-width:0.264583"
         x="157.08939"
         y="233.03107"
         id="tspan62953" /></text>
    <path
       style="fill:none;stroke:#000000;stroke-width:0.264583px;stroke-linecap:butt;stroke-linejoin:miter;stroke-opacity:1"
       d="m 138.45923,195.24904 c 0.17001,-0.25511 0.25926,-0.56319 0.25193,-0.86967 -0.007,-0.30648 -0.1112,-0.60995 -0.29322,-0.85663 -0.18201,-0.24669 -0.44133,-0.43546 -0.73201,-0.53287 -0.29068,-0.0974 -0.61138,-0.10302 -0.90529,-0.0158 -0.0917,0.0272 -0.18076,0.0632 -0.26608,0.10643 -0.48331,0.24505 -0.8237,0.71548 -1.0124,1.22344 -0.045,0.1212 -0.0825,0.24545 -0.10644,0.37251 -0.0757,0.40198 -0.0136,0.81515 0,1.22397 0.0229,0.69112 -0.0936,1.38697 0,2.07211 0.0558,0.4087 0.18615,0.81233 0.15965,1.22397 -0.008,0.12451 -0.0302,0.25145 0,0.37251 0.0231,0.0928 0.0757,0.17552 0.10643,0.26608 0.0404,0.11911 0.0419,0.24724 0.0532,0.37252 0.064,0.71014 0.45129,1.36264 0.50222,2.07384 0.0255,0.35561 -0.0415,0.72991 -0.2554,1.0151 -0.10697,0.1426 -0.24952,0.25988 -0.41418,0.32819 -0.16465,0.0683 -0.35144,0.0861 -0.52378,0.0406 -0.10632,-0.0281 -0.20492,-0.079 -0.30537,-0.12377 -0.10046,-0.0448 -0.20604,-0.0842 -0.31599,-0.0869 -0.055,-0.001 -0.11052,0.007 -0.16158,0.0271 -0.0511,0.0204 -0.0975,0.0535 -0.13064,0.0974 -0.0331,0.0439 -0.0524,0.0988 -0.0504,0.15372 0.002,0.0549 0.026,0.10944 0.0676,0.14542 0.0431,0.0373 0.10028,0.0525 0.15213,0.0761 0.12694,0.0577 0.22234,0.16585 0.31929,0.26608 0.10213,0.10558 0.21023,0.20559 0.30615,0.31685 0.0959,0.11125 0.18021,0.23538 0.22601,0.37495 0.0673,0.20499 0.0477,0.42966 0.10644,0.63725 0.026,0.0918 0.0669,0.17861 0.10644,0.26544 0.14874,0.32632 0.28332,0.66632 0.31185,1.0238 0.0143,0.17874 0.001,0.36057 -0.0487,0.53275 -0.0501,0.17217 -0.13811,0.3345 -0.26313,0.46304 -0.0175,0.018 -0.0357,0.0353 -0.0532,0.0532 -0.14564,0.14882 -0.24536,0.3399 -0.29576,0.54193 -0.0504,0.20204 -0.0525,0.41468 -0.0179,0.62002 0.0691,0.41068 0.28039,0.78443 0.52657,1.12033 0.13412,0.183 0.27946,0.35747 0.42505,0.53148 0.24522,0.29309 0.49154,0.58535 0.72851,0.88515 0.069,0.0873 0.13727,0.17531 0.21036,0.25925 0.23522,0.27014 0.53283,0.50297 0.88253,0.58051 0.16818,0.0373 0.34452,0.0373 0.5127,0"
       id="path68427"
       inkscape:path-effect="#path-effect68429"
       inkscape:original-d="m 138.45923,195.24904 c -0.55953,-0.75833 -1.04941,-1.57338 -1.67859,-2.275 -0.0638,-0.0711 -0.18066,0.0637 -0.26608,0.10643 -0.49359,0.24703 -0.94138,0.64976 -1.0124,1.22344 -0.1023,0.82631 0.13156,-0.34145 -0.10644,0.37251 -0.0861,0.25836 0,0.94927 0,1.22397 0,0.67846 -0.0747,1.39999 0,2.07211 0.0462,0.41544 0.11495,0.82166 0.15965,1.22397 0.0137,0.12341 -0.0243,0.25075 0,0.37251 0.1261,0.63056 0.10643,-0.14914 0.10643,0.26608 0,0.47336 -0.0129,-0.22259 0.0532,0.37252 0.0986,0.88726 0.0628,2.8905 -0.69114,3.45769 -0.3774,0.28391 -0.79873,0.1499 -0.89641,0.21287 -0.0477,0.0307 0.10524,0.0442 0.15213,0.0761 0.11479,0.078 0.20234,0.18811 0.31929,0.26608 0.22591,0.15061 0.41757,0.46262 0.53216,0.6918 0.0865,0.17291 0.0451,0.45367 0.10644,0.63725 0.11427,0.34209 0.10644,0.10847 0.10644,0.26544 0,0.5098 0.0895,1.57322 0,2.01959 -0.005,0.0246 -0.0471,0.0289 -0.0532,0.0532 -0.10978,0.43493 0.0324,1.92253 0.21286,2.28228 0.0769,0.15331 0.31841,0.38928 0.42505,0.53148 0.21906,0.29209 0.40555,0.7222 0.72851,0.88515 0.10665,0.0538 0.11099,0.20925 0.21036,0.25925 0.32052,0.16127 0.57441,0.42227 0.88253,0.58051 0.0854,0.0439 0.41733,0 0.5127,0" />
    <text
       xml:space="preserve"
       style="font-size:4.23333px;line-height:1.25;font-family:sans-serif;letter-spacing:0px;stroke-width:0.264583"
       x="122.24784"
       y="204.77638"
       id="text70053"><tspan
         sodipodi:role="line"
         id="tspan70051"
         style="stroke-width:0.264583"
         x="122.24784"
         y="204.77638">$ c^{1} $</tspan><tspan
         sodipodi:role="line"
         style="stroke-width:0.264583"
         x="122.24784"
         y="210.06804"
         id="tspan70055" /></text>
    <text
       xml:space="preserve"
       style="font-size:4.23333px;line-height:1.25;font-family:sans-serif;letter-spacing:0px;stroke-width:0.264583"
       x="132.83211"
       y="282.93979"
       id="text75013"><tspan
         sodipodi:role="line"
         id="tspan75011"
         style="stroke-width:0.264583"
         x="132.83211"
         y="282.93979">$ k_1^{*} $</tspan><tspan
         sodipodi:role="line"
         style="stroke-width:0.264583"
         x="132.83211"
         y="288.23145"
         id="tspan75015" /></text>
  </g>
</svg>
