<?xml version="1.0" encoding="UTF-8" standalone="no"?>
<!-- Created with Inkscape (http://www.inkscape.org/) -->

<svg
   width="240mm"
   height="120mm"
   viewBox="0 0 240 120"
   version="1.1"
   id="svg8"
   inkscape:version="1.1 (1:1.1+202106031931+af4d65493e)"
   sodipodi:docname="world-saving-and-investment.svg"
   xmlns:inkscape="http://www.inkscape.org/namespaces/inkscape"
   xmlns:sodipodi="http://sodipodi.sourceforge.net/DTD/sodipodi-0.dtd"
   xmlns="http://www.w3.org/2000/svg"
   xmlns:svg="http://www.w3.org/2000/svg"
   xmlns:rdf="http://www.w3.org/1999/02/22-rdf-syntax-ns#"
   xmlns:cc="http://creativecommons.org/ns#"
   xmlns:dc="http://purl.org/dc/elements/1.1/">
  <defs
     id="defs2">
    <inkscape:path-effect
       effect="spiro"
       id="path-effect76073"
       is_visible="true"
       lpeversion="1" />
    <inkscape:path-effect
       effect="spiro"
       id="path-effect70640"
       is_visible="true"
       lpeversion="1" />
    <inkscape:path-effect
       effect="spiro"
       id="path-effect9355"
       is_visible="true"
       lpeversion="1" />
    <inkscape:path-effect
       effect="spiro"
       id="path-effect9238"
       is_visible="true"
       lpeversion="1" />
    <inkscape:path-effect
       effect="spiro"
       id="path-effect9234"
       is_visible="true"
       lpeversion="1" />
    <inkscape:path-effect
       effect="spiro"
       id="path-effect9230"
       is_visible="true"
       lpeversion="1" />
    <inkscape:path-effect
       effect="spiro"
       id="path-effect9079"
       is_visible="true"
       lpeversion="1" />
    <inkscape:path-effect
       effect="spiro"
       id="path-effect9051"
       is_visible="true"
       lpeversion="1" />
  </defs>
  <sodipodi:namedview
     id="base"
     pagecolor="#ffffff"
     bordercolor="#666666"
     borderopacity="1.0"
     inkscape:pageopacity="0.0"
     inkscape:pageshadow="2"
     inkscape:zoom="0.99437388"
     inkscape:cx="284.09837"
     inkscape:cy="182.02409"
     inkscape:document-units="mm"
     inkscape:current-layer="layer1"
     showgrid="false"
     showborder="true"
     width="200mm"
     showguides="true"
     inkscape:guide-bbox="true"
     inkscape:window-width="1906"
     inkscape:window-height="809"
     inkscape:window-x="7"
     inkscape:window-y="37"
     inkscape:window-maximized="1"
     inkscape:pagecheckerboard="0">
    <inkscape:grid
       type="xygrid"
       id="grid815"
       units="mm"
       spacingx="10"
       spacingy="10"
       empspacing="4"
       dotted="false" />
  </sodipodi:namedview>
  <metadata
     id="metadata5">
    <rdf:RDF>
      <cc:Work
         rdf:about="">
        <dc:format>image/svg+xml</dc:format>
        <dc:type
           rdf:resource="http://purl.org/dc/dcmitype/StillImage" />
      </cc:Work>
    </rdf:RDF>
  </metadata>
  <g
     inkscape:label="Layer 1"
     inkscape:groupmode="layer"
     id="layer1"
     transform="translate(0,-177)">
    <path
       style="fill:none;stroke:#000000;stroke-width:0.264583px;stroke-linecap:butt;stroke-linejoin:miter;stroke-opacity:1"
       d="m 17.003205,189.7075 v 83.22368 h 87.018405"
       id="path1035" />
    <path
       style="fill:none;stroke:#000000;stroke-width:0.264583px;stroke-linecap:butt;stroke-linejoin:miter;stroke-opacity:1"
       d="m 127.79612,189.92368 v 83.11625 h 92.78058"
       id="path1037" />
    <text
       xml:space="preserve"
       style="font-size:4.23333px;line-height:1.25;font-family:sans-serif;stroke-width:0.264583"
       x="82.08268"
       y="186.02554"
       id="text3175"><tspan
         sodipodi:role="line"
         id="tspan3173"
         style="stroke-width:0.264583"
         x="82.08268"
         y="186.02554">world</tspan></text>
    <text
       xml:space="preserve"
       style="font-size:4.23333px;line-height:1.25;font-family:sans-serif;stroke-width:0.264583"
       x="193.49283"
       y="186.24953"
       id="text6809"><tspan
         sodipodi:role="line"
         id="tspan6807"
         style="stroke-width:0.264583"
         x="193.49283"
         y="186.24953">Our country</tspan></text>
    <path
       style="fill:none;stroke:#000000;stroke-width:0.264583px;stroke-linecap:butt;stroke-linejoin:miter;stroke-opacity:1"
       d="m 72.43506,194.6328 v 78.22098"
       id="path8890" />
    <path
       style="fill:none;stroke:#000000;stroke-width:0.264583px;stroke-linecap:butt;stroke-linejoin:miter;stroke-opacity:1"
       d="M 175.70549,194.42162 V 272.6426"
       id="path8890-6" />
    <path
       style="fill:none;stroke:#000000;stroke-width:0.264583px;stroke-linecap:butt;stroke-linejoin:miter;stroke-opacity:1"
       d="m 43.209585,194.81024 v 78.22098"
       id="path8890-3" />
    <path
       style="fill:none;stroke:#000000;stroke-width:0.264583px;stroke-linecap:butt;stroke-linejoin:miter;stroke-opacity:1"
       d="m 25.319028,194.84176 c -0.762337,6.2798 -0.184853,12.71896 1.682717,18.76291 2.421588,7.8369 6.955552,14.90003 12.375464,21.05678 7.471758,8.48755 16.669269,15.38292 26.667587,20.66489 11.680623,6.17071 24.500675,10.17614 37.616654,11.75275"
       id="path9049"
       inkscape:path-effect="#path-effect9051"
       inkscape:original-d="m 25.319028,194.84176 c 0.56117,6.25457 1.122076,12.50887 1.682717,18.76291 0.560641,6.25404 8.250573,14.03812 12.375464,21.05678 4.124889,7.01865 17.778656,13.77686 26.667587,20.66489 8.888931,6.88803 25.078031,7.83543 37.616654,11.75275" />
    <path
       style="fill:none;stroke:#000000;stroke-width:0.239959px;stroke-linecap:butt;stroke-linejoin:miter;stroke-opacity:1"
       d="m 135.56283,207.94553 c -0.70218,5.26121 -0.12946,10.68806 1.6555,15.68679 2.42118,6.78045 6.97883,12.62125 12.17527,17.60459 7.59442,7.28299 16.64515,12.94928 26.23621,17.27695 11.68649,5.27317 24.24508,8.60757 37.00815,9.82593"
       id="path9049-7"
       inkscape:path-effect="#path-effect9079"
       inkscape:original-d="m 135.56283,207.94553 c 0.55209,5.22915 1.10393,10.45808 1.6555,15.68679 0.55157,5.22871 8.11711,11.73662 12.17527,17.60459 4.05817,5.86797 17.49107,11.51819 26.23621,17.27695 8.74514,5.75876 24.67236,6.55084 37.00815,9.82593" />
    <path
       style="fill:none;stroke:#000000;stroke-width:0.264583px;stroke-linecap:butt;stroke-linejoin:miter;stroke-opacity:1"
       d="M 72.75673,258.55804 H 16.632619"
       id="path9228"
       inkscape:path-effect="#path-effect9230"
       inkscape:original-d="m 72.75673,258.55804 c -18.707772,2.6e-4 -37.415808,2.6e-4 -56.124111,0" />
    <path
       style="fill:none;stroke:#000000;stroke-width:0.264583px;stroke-linecap:butt;stroke-linejoin:miter;stroke-opacity:1"
       d="M 43.124178,238.74392 H 16.770645"
       id="path9232"
       inkscape:path-effect="#path-effect9234"
       inkscape:original-d="m 43.124178,238.74392 c -8.784246,2.6e-4 -17.568758,2.6e-4 -26.353533,0" />
    <path
       style="fill:none;stroke:#000000;stroke-width:0.165;stroke-linecap:butt;stroke-linejoin:miter;stroke-opacity:1;stroke-miterlimit:4;stroke-dasharray:0.165,0.495;stroke-dashoffset:0"
       d="M 72.75673,258.55804 H 175.43902"
       id="path9236"
       inkscape:path-effect="#path-effect9238"
       inkscape:original-d="m 72.75673,258.55804 c 34.22769,2.6e-4 68.45512,2.6e-4 102.68229,0" />
    <path
       style="fill:none;stroke:#000000;stroke-width:0.26458299;stroke-linecap:butt;stroke-linejoin:miter;stroke-opacity:1;stroke-miterlimit:4;stroke-dasharray:0.26458299,0.79374896;stroke-dashoffset:0"
       d="M 43.124178,238.74392 H 175.48193"
       id="path9353"
       inkscape:path-effect="#path-effect9355"
       inkscape:original-d="m 43.124178,238.74392 c 44.119513,2.6e-4 88.238762,2.6e-4 132.357752,0" />
    <text
       xml:space="preserve"
       style="font-size:4.23333px;line-height:1.25;font-family:sans-serif;letter-spacing:0px;stroke-width:0.264583"
       x="6.5515862"
       y="259.0069"
       id="text25103"><tspan
         sodipodi:role="line"
         id="tspan25101"
         style="stroke-width:0.264583"
         x="6.5515862"
         y="259.0069">$ r_{1}^{*} $</tspan><tspan
         sodipodi:role="line"
         style="stroke-width:0.264583"
         x="6.5515862"
         y="264.29855"
         id="tspan25105" /></text>
    <text
       xml:space="preserve"
       style="font-size:4.23333px;line-height:1.25;font-family:sans-serif;letter-spacing:0px;stroke-width:0.264583"
       x="6.5515862"
       y="240.13272"
       id="text30455"><tspan
         sodipodi:role="line"
         id="tspan30453"
         style="stroke-width:0.264583"
         x="6.5515862"
         y="240.13272">$ r_{2}^{*} $</tspan><tspan
         sodipodi:role="line"
         style="stroke-width:0.264583"
         x="6.5515862"
         y="245.42438"
         id="tspan30457" /></text>
    <text
       xml:space="preserve"
       style="font-size:4.23333px;line-height:1.25;font-family:sans-serif;letter-spacing:0px;stroke-width:0.264583"
       x="72.998871"
       y="194.6368"
       id="text34471"><tspan
         sodipodi:role="line"
         id="tspan34469"
         style="stroke-width:0.264583"
         x="72.998871"
         y="194.6368">$ S_1 $</tspan><tspan
         sodipodi:role="line"
         style="stroke-width:0.264583"
         x="72.998871"
         y="199.92845"
         id="tspan34473" /></text>
    <text
       xml:space="preserve"
       style="font-size:4.23333px;line-height:1.25;font-family:sans-serif;letter-spacing:0px;stroke-width:0.264583"
       x="43.209583"
       y="194.81024"
       id="text39559"><tspan
         sodipodi:role="line"
         id="tspan39557"
         style="stroke-width:0.264583"
         x="43.209583"
         y="194.81024">$ S_2 $</tspan><tspan
         sodipodi:role="line"
         style="stroke-width:0.264583"
         x="43.209583"
         y="200.1019"
         id="tspan39561" /></text>
    <text
       xml:space="preserve"
       style="font-size:4.23333px;line-height:1.25;font-family:sans-serif;letter-spacing:0px;stroke-width:0.264583"
       x="175.70549"
       y="194.42162"
       id="text46705"><tspan
         sodipodi:role="line"
         id="tspan46703"
         style="stroke-width:0.264583"
         x="175.70549"
         y="194.42162">S</tspan></text>
    <text
       xml:space="preserve"
       style="font-size:4.23333px;line-height:1.25;font-family:sans-serif;letter-spacing:0px;stroke-width:0.264583"
       x="197.53458"
       y="266.01013"
       id="text60997"><tspan
         sodipodi:role="line"
         id="tspan60995"
         style="stroke-width:0.264583"
         x="197.53458"
         y="266.01013">$ I(r)_{\text{ SOE }} $</tspan><tspan
         sodipodi:role="line"
         style="stroke-width:0.264583"
         x="197.53458"
         y="271.30179"
         id="tspan60999" /></text>
    <text
       xml:space="preserve"
       style="font-size:4.23333px;line-height:1.25;font-family:sans-serif;letter-spacing:0px;stroke-width:0.264583"
       x="87.554825"
       y="263.44214"
       id="text69883"><tspan
         sodipodi:role="line"
         id="tspan69881"
         style="stroke-width:0.264583"
         x="87.554825"
         y="263.44214">$ I(r)_{\text{ world }} $</tspan><tspan
         sodipodi:role="line"
         style="stroke-width:0.264583"
         x="87.554825"
         y="268.7338"
         id="tspan69885" /></text>
    <path
       style="fill:none;stroke:#000000;stroke-width:0.26458299;stroke-linecap:butt;stroke-linejoin:miter;stroke-opacity:1;stroke-miterlimit:4;stroke-dasharray:0.26458299,0.79374896;stroke-dashoffset:0"
       d="m 146.75139,238.55515 v 34.63921"
       id="path70638"
       inkscape:path-effect="#path-effect70640"
       inkscape:original-d="m 146.75139,238.55515 c 2.6e-4,11.54667 2.6e-4,23.09307 0,34.63921" />
    <text
       xml:space="preserve"
       style="font-size:4.23333px;line-height:1.25;font-family:sans-serif;letter-spacing:0px;stroke-width:0.264583"
       x="169.41254"
       y="278.32123"
       id="text74046"><tspan
         sodipodi:role="line"
         id="tspan74044"
         style="stroke-width:0.264583"
         x="169.41254"
         y="278.32123">$ I_0 $</tspan><tspan
         sodipodi:role="line"
         style="stroke-width:0.264583"
         x="169.41254"
         y="283.61288"
         id="tspan74048" /></text>
    <text
       xml:space="preserve"
       style="font-size:4.23333px;line-height:1.25;font-family:sans-serif;letter-spacing:0px;stroke-width:0.264583"
       x="140.8163"
       y="278.32123"
       id="text75822"><tspan
         sodipodi:role="line"
         id="tspan75820"
         style="stroke-width:0.264583"
         x="140.8163"
         y="278.32123">$ I_1 $</tspan><tspan
         sodipodi:role="line"
         style="stroke-width:0.264583"
         x="140.8163"
         y="283.61288"
         id="tspan75824" /></text>
    <path
       style="fill:none;stroke:#000000;stroke-width:0.264583px;stroke-linecap:butt;stroke-linejoin:miter;stroke-opacity:1"
       d="m 146.75139,238.55515 c 0.0282,-1.50636 0.67728,-2.99177 1.7635,-4.03582 0.1847,-0.17753 0.38451,-0.34477 0.61745,-0.45143 0.41327,-0.18923 0.89253,-0.17065 1.33873,-0.084 0.4462,0.0866 0.87928,0.23705 1.32912,0.30217 0.6886,0.0997 1.38874,-0.004 2.0845,0 0.57614,0.003 1.15557,0.0797 1.72618,0 0.55527,-0.0776 1.09014,-0.30187 1.65079,-0.30463 0.17946,-8.8e-4 0.35969,0.0211 0.53791,0 0.22347,-0.0264 0.43367,-0.11938 0.65452,-0.16255 0.22896,-0.0448 0.46462,-0.0353 0.69722,-0.0532 0.32755,-0.0253 0.65209,-0.10624 0.94685,-0.25131 0.29476,-0.14507 0.55914,-0.35519 0.75539,-0.61865 0.33788,-0.4536 0.45706,-1.06091 0.32393,-1.61063 -0.0171,-0.0705 -0.0382,-0.14095 -0.0391,-0.21345 -4.7e-4,-0.0362 0.004,-0.0728 0.0167,-0.10687 0.0125,-0.034 0.0329,-0.0655 0.0608,-0.0886 0.0267,-0.022 0.0598,-0.0359 0.094,-0.041 0.0342,-0.005 0.0696,-0.002 0.10257,0.009 0.066,0.0208 0.12131,0.0683 0.16187,0.12438 0.0811,0.1122 0.10615,0.25433 0.16223,0.38092 0.066,0.14903 0.17552,0.27603 0.30223,0.37856 0.12671,0.10253 0.27058,0.18183 0.41765,0.2521 0.29414,0.14054 0.60951,0.25028 0.86023,0.45863 0.0797,0.0662 0.15152,0.14145 0.22901,0.2103 0.0775,0.0688 0.16211,0.1321 0.25898,0.16899 0.15385,0.0586 0.32768,0.0469 0.48116,0.10644 0.074,0.0287 0.14082,0.0731 0.21288,0.10643 0.13198,0.061 0.27905,0.0833 0.42442,0.0856 0.14537,0.002 0.29023,-0.0149 0.43488,-0.0295 1.55302,-0.15718 3.11864,-0.0297 4.67703,0.0597 0.78729,0.0452 1.57553,0.0806 2.36014,0.15965 0.38531,0.0388 0.78716,0.0947 1.1033,0.31832 0.13298,0.0941 0.24513,0.21432 0.37121,0.31747 0.10248,0.0838 0.2139,0.15618 0.31769,0.2384 0.1038,0.0822 0.2013,0.1761 0.26573,0.29178 0.0658,0.11814 0.0944,0.25404 0.15964,0.37252 0.0549,0.0998 0.13387,0.18387 0.21217,0.26659 0.0783,0.0827 0.15764,0.16634 0.21355,0.26557 0.0909,0.16133 0.1131,0.35075 0.159,0.53015 0.0613,0.23966 0.16656,0.46533 0.26608,0.69181 0.0654,0.14885 0.12902,0.30013 0.15899,0.45993 0.0277,0.14779 0.026,0.29923 0.0315,0.44949 0.006,0.15026 0.019,0.30291 0.0749,0.44249 0.0342,0.0854 0.084,0.16507 0.10644,0.25432 0.0294,0.11706 0.008,0.24606 -0.0585,0.34699 -0.0662,0.10092 -0.17589,0.17225 -0.29499,0.19185"
       id="path76071"
       inkscape:path-effect="#path-effect76073"
       inkscape:original-d="m 146.75139,238.55515 c 0.52615,-2.36847 0.18302,-2.87709 1.7635,-4.03582 0.35541,-0.26057 0.2687,-0.27695 0.61745,-0.45143 0.79997,-0.40023 1.87116,0.16067 2.66785,0.21816 0.68546,0.0495 1.39788,0 2.0845,0 0.55994,0 1.17048,0.0669 1.72618,0 0.55017,-0.0663 1.09806,-0.24757 1.65079,-0.30463 0.17835,-0.0184 0.35896,0.0113 0.53791,0 0.43201,-0.0271 0.22812,-0.0684 0.65452,-0.16255 0.22108,-0.0488 0.47657,-0.013 0.69722,-0.0532 0.53663,-0.0979 1.37032,-0.4253 1.70224,-0.86996 0.35441,-0.4748 0.32393,-1.05714 0.32393,-1.61063 0,-0.0241 -0.0267,-0.41335 0.0384,-0.40893 0.0702,0.005 0.40402,0.39545 0.5207,0.47323 0.53364,0.35573 1.04622,0.73354 1.58011,1.08929 0.17144,0.11424 0.31324,0.27018 0.48799,0.37929 0.16866,0.10531 0.30415,0.0622 0.48116,0.10644 0.077,0.0192 0.13509,0.0909 0.21288,0.10643 0.28147,0.0563 0.57331,0.0316 0.8593,0.0561 1.54903,0.1329 3.1222,0.0597 4.67703,0.0597 0.79627,0 1.6043,-0.0293 2.36014,0.15965 0.34976,0.0874 0.80741,0.10514 1.1033,0.31832 0.12881,0.0928 0.23835,0.2289 0.37121,0.31747 0.18762,0.12508 0.4513,0.33201 0.58342,0.53018 0.074,0.11105 0.0892,0.2669 0.15964,0.37252 0.12138,0.18206 0.29364,0.35604 0.42572,0.53216 0.12747,0.16997 0.0766,0.34478 0.159,0.53015 0.12791,0.28791 0.18964,0.38611 0.26608,0.69181 0.0418,0.16742 0.13097,0.29006 0.15899,0.45993 0.0472,0.28622 0.0336,0.6104 0.10644,0.89198 0.02,0.0772 0.15631,0.16494 0.10644,0.25432 -0.10469,0.18758 -0.23568,0.35922 -0.35352,0.53884" />
    <text
       xml:space="preserve"
       style="font-size:4.23333px;line-height:1.25;font-family:sans-serif;letter-spacing:0px;stroke-width:0.264583"
       x="156.09109"
       y="227.58612"
       id="text78871"><tspan
         sodipodi:role="line"
         id="tspan78869"
         style="stroke-width:0.264583"
         x="156.09109"
         y="227.58612">NX&gt;0</tspan></text>
  </g>
</svg>
